<svg xmlns="http://www.w3.org/2000/svg">
    <symbol viewBox="0 0 128 128" id="logo">
        <path class="meteor" fill="#07f" d="M122.8 81.17L99.74 67.33a5.786 5.786 0 0 0-5.93 0L76.79 77.54c4.87 1.36 8.46 5.78 8.46 11.07 0 6.37-5.16 11.53-11.53 11.53-2.11 0-4.06-.61-5.76-1.6v9.86c0 2.03 1.06 3.9 2.8 4.94l23.06 13.84a5.786 5.786 0 0 0 5.93 0l23.06-13.84a5.778 5.778 0 0 0 2.8-4.94V86.11a5.797 5.797 0 0 0-2.81-4.94zm-14.5 24.73c-3.19 0-5.76-2.58-5.76-5.76 0-3.19 2.58-5.76 5.76-5.76 3.19 0 5.76 2.58 5.76 5.76.01 3.18-2.57 5.76-5.76 5.76z"/>
        <path d="M2.398 62.968l4.292-7.51 57.058 32.61-4.292 7.51zM57.856 4.296l7.51-4.292L97.97 57.063l-7.51 4.29zM14.561 42.53l4.446-7.409L39.38 47.346l-4.445 7.409zM37.524 16.6l7.41-4.446 12.224 20.374-7.41 4.445zm21.031 45.668l6.117-6.116 12.225 12.226-6.116 6.116z"/>
    </symbol>
    <symbol viewBox="0 0 128 128" id="mail">
        <path d="M6.62 24.06c1.84-1.02 3.92-1.66 6.18-1.66h102.4c2.25 0 4.34.64 6.18 1.66L64 59.67 6.62 24.06zm60.75 48.58c-1.03.64-2.2.96-3.37.96s-2.34-.32-3.37-.96L.02 35.03c0 .06-.02.11-.02.17v57.6c0 7.06 5.74 12.8 12.8 12.8h102.4c7.06 0 12.8-5.74 12.8-12.8V35.2c0-.06-.02-.11-.02-.17L67.37 72.64z"/>
    </symbol>
    <symbol viewBox="0 0 128 128" id="phone">
        <path d="M70.654 1.46L51.967 19.524l.091.095c-23.353 24.401-24.027 62.792-1.535 88.012l-.096.092 18.044 18.691c1.999 2.062 5.292 2.122 7.353.132l14.96-14.452a5.205 5.205 0 0 0 .129-7.35L76.47 89.787a5.207 5.207 0 0 0-7.353-.131l-7.385 7.139c-16.524-19.006-16.027-47.552 1.155-65.963l7.127 7.387a5.207 5.207 0 0 0 7.35.125L92.32 23.901a5.202 5.202 0 0 0 .132-7.356L78.008 1.588a5.2 5.2 0 0 0-7.354-.128z"/>
    </symbol>
</svg>
