<svg xmlns="http://www.w3.org/2000/svg" viewBox="0 0 128 128">
    <path class="meteor" fill="#07f" d="M122.8 81.17L99.74 67.33a5.786 5.786 0 0 0-5.93 0L76.79 77.54c4.87 1.36 8.46 5.78 8.46 11.07 0 6.37-5.16 11.53-11.53 11.53-2.11 0-4.06-.61-5.76-1.6v9.86c0 2.03 1.06 3.9 2.8 4.94l23.06 13.84a5.786 5.786 0 0 0 5.93 0l23.06-13.84a5.778 5.778 0 0 0 2.8-4.94V86.11a5.797 5.797 0 0 0-2.81-4.94zm-14.5 24.73c-3.19 0-5.76-2.58-5.76-5.76 0-3.19 2.58-5.76 5.76-5.76 3.19 0 5.76 2.58 5.76 5.76.01 3.18-2.57 5.76-5.76 5.76z"/>
    <path d="M2.398 62.968l4.292-7.51 57.058 32.61-4.292 7.51zM57.856 4.296l7.51-4.292L97.97 57.063l-7.51 4.29zM14.561 42.53l4.446-7.409L39.38 47.346l-4.445 7.409zM37.524 16.6l7.41-4.446 12.224 20.374-7.41 4.445zM58.555 62.268l6.117-6.116 12.225 12.226-6.116 6.116z"/>
</svg>
