<svg xmlns="http://www.w3.org/2000/svg" width="128" height="128" viewBox="0 0 128 128">
    <path d="M70.654 1.46L51.967 19.524l.091.095c-23.353 24.401-24.027 62.792-1.535 88.012l-.096.092 18.044 18.691c1.999 2.062 5.292 2.122 7.353.132l14.96-14.452a5.205 5.205 0 0 0 .129-7.35L76.47 89.787a5.207 5.207 0 0 0-7.353-.131l-7.385 7.139c-16.524-19.006-16.027-47.552 1.155-65.963l7.127 7.387a5.207 5.207 0 0 0 7.35.125L92.32 23.901a5.202 5.202 0 0 0 .132-7.356L78.008 1.588a5.2 5.2 0 0 0-7.354-.128z"/>
</svg>
