<?xml version="1.0" encoding="utf-8"?>
<!-- Generator: Adobe Illustrator 21.0.2, SVG Export Plug-In . SVG Version: 6.00 Build 0)  -->
<svg version="1.1" id="Ebene_1" xmlns="http://www.w3.org/2000/svg" xmlns:xlink="http://www.w3.org/1999/xlink" x="0px" y="0px"
	 viewBox="0 0 128 128" enable-background="new 0 0 128 128" xml:space="preserve">
<path class="meteor" fill="#07f" d="M122.8,81.17L99.74,67.33c-1.83-1.09-4.11-1.09-5.93,0L76.79,77.54c4.87,1.36,8.46,5.78,8.46,11.07
	c0,6.37-5.16,11.53-11.53,11.53c-2.11,0-4.06-0.61-5.76-1.6v9.86c0,2.03,1.06,3.9,2.8,4.94l23.06,13.84c1.83,1.09,4.11,1.09,5.93,0
	l23.06-13.84c1.73-1.04,2.8-2.92,2.8-4.94V86.11C125.6,84.08,124.53,82.21,122.8,81.17z M108.3,105.9c-3.19,0-5.76-2.58-5.76-5.76
	c0-3.19,2.58-5.76,5.76-5.76c3.19,0,5.76,2.58,5.76,5.76C114.07,103.32,111.49,105.9,108.3,105.9z"/>
<rect x="28.75" y="42.65" transform="matrix(0.4962 -0.8682 0.8682 0.4962 -48.8963 66.7661)" width="8.65" height="65.72"/>
<rect x="73.59" y="-2.18" transform="matrix(0.8682 -0.4961 0.4961 0.8682 -4.953 42.6964)" width="8.65" height="65.72"/>
<rect x="22.65" y="33.06" transform="matrix(0.5145 -0.8575 0.8575 0.5145 -25.441 44.9431)" width="8.64" height="23.76"/>
<rect x="43.02" y="12.68" transform="matrix(0.8575 -0.5145 0.5145 0.8575 -5.8891 27.8598)" width="8.64" height="23.76"/>
<rect x="63.4" y="56.68" transform="matrix(0.7071 -0.7071 0.7071 0.7071 -26.3534 67.0201)" width="8.65" height="17.29"/>
</svg>
