<?xml version="1.0" encoding="utf-8"?>
<!-- Generator: Adobe Illustrator 20.0.0, SVG Export Plug-In . SVG Version: 6.00 Build 0)  -->
<svg version="1.1" id="Ebene_1" xmlns="http://www.w3.org/2000/svg" xmlns:xlink="http://www.w3.org/1999/xlink" x="0px" y="0px"
	 viewBox="0 0 128 128" enable-background="new 0 0 128 128" xml:space="preserve">
<path d="M6.62,24.06c1.84-1.02,3.92-1.66,6.18-1.66h102.4c2.25,0,4.34,0.64,6.18,1.66L64,59.67L6.62,24.06z M67.37,72.64
	c-1.03,0.64-2.2,0.96-3.37,0.96c-1.17,0-2.34-0.32-3.37-0.96L0.02,35.03C0.02,35.09,0,35.14,0,35.2v57.6c0,7.06,5.74,12.8,12.8,12.8
	h102.4c7.06,0,12.8-5.74,12.8-12.8V35.2c0-0.06-0.02-0.11-0.02-0.17L67.37,72.64z"/>
</svg>
