<?xml version="1.0" encoding="UTF-8"?>
<!-- Generator: Adobe Illustrator 16.0.3, SVG Export Plug-In . SVG Version: 6.00 Build 0)  -->
<!DOCTYPE svg PUBLIC "-//W3C//DTD SVG 1.1//EN" "http://www.w3.org/Graphics/SVG/1.1/DTD/svg11.dtd">
<svg version="1.1" id="Layer_1" xmlns="http://www.w3.org/2000/svg" xmlns:xlink="http://www.w3.org/1999/xlink" x="0px" y="0px" width="128px" height="128px" viewBox="0 0 128 128" enable-background="new 0 0 128 128" xml:space="preserve">
<path d="M70.654,1.46L51.967,19.524l0.091,0.095c-23.353,24.401-24.027,62.792-1.535,88.012l-0.096,0.092l18.044,18.691  c1.999,2.062,5.292,2.122,7.353,0.132l14.96-14.452c2.063-2.001,2.118-5.275,0.129-7.35L76.47,89.787  c-1.997-2.063-5.291-2.122-7.353-0.131l-7.385,7.139c-16.524-19.006-16.027-47.552,1.155-65.963l7.127,7.387  c1.994,2.061,5.29,2.113,7.35,0.125L92.32,23.901c2.069-1.999,2.126-5.284,0.132-7.356L78.008,1.588  C76.02-0.477,72.722-0.538,70.654,1.46z"/>
</svg>